<svg xmlns="http://www.w3.org/2000/svg" xmlns:svg="http://www.w3.org/2000/svg" id="svg16" width="64" height="64" enable-background="new 0 0 64 64" version="1.1" viewBox="0 0 64 64" xml:space="preserve"><metadata id="metadata22"/><g id="g4"><circle style="fill:#0065a3;fill-opacity:1" id="circle2" cx="32" cy="32" r="32"/></g><g id="g4635"><g style="stroke-width:.66098297" id="g4571" transform="matrix(1.5128983,0,0,1.5128983,4.6797063,-8.637646)"><g style="stroke-width:.66098297" id="g1144" transform="translate(1.424727,-14.19344)"><g id="g1140" transform="matrix(0.29741252,0,0,0.29741252,7.116321,23.235478)" style="opacity:.6;fill:#000;fill-opacity:1;stroke-width:.66098297"><path id="path1138" d="M 48,37.077 C 48,46.423 40.837,54 32,54 23.163,54 16,46.423 16,37.077 16,27.731 25.6,20.154 32,10 38.4,20.154 48,27.731 48,37.077 Z" style="opacity:1;fill:#000;fill-opacity:1;stroke-width:.66098297"/></g><path style="fill:#fff;stroke-width:.19658461" id="path1142" d="m 21.392122,33.072992 c 0,2.779617 -2.130366,5.033112 -4.7586,5.033112 -2.628234,0 -4.7586,-2.253495 -4.7586,-5.033112 0,-2.779618 2.85516,-5.033112 4.7586,-8.053039 1.90344,3.019927 4.7586,5.273421 4.7586,8.053039 z"/></g></g><g id="g4603" transform="matrix(1.5128983,0,0,1.5128983,4.6797063,19.294557)" style="stroke-width:.66098297"><g id="g4601" transform="translate(1.424727,-14.19344)" style="stroke-width:.66098297"><g style="opacity:.6;fill:#000;fill-opacity:1;stroke-width:.66098297" id="g4597" transform="matrix(0.29741252,0,0,0.29741252,7.116321,23.235478)"><path style="opacity:1;fill:#000;fill-opacity:1;stroke-width:.66098297" id="path4595" d="M 48,37.077 C 48,46.423 40.837,54 32,54 23.163,54 16,46.423 16,37.077 16,27.731 25.6,20.154 32,10 38.4,20.154 48,27.731 48,37.077 Z"/></g><path id="path4599" d="m 21.392122,33.072992 c 0,2.779617 -2.130366,5.033112 -4.7586,5.033112 -2.628234,0 -4.7586,-2.253495 -4.7586,-5.033112 0,-2.779618 2.85516,-5.033112 4.7586,-8.053039 1.90344,3.019927 4.7586,5.273421 4.7586,8.053039 z" style="fill:#fff;stroke-width:.19658461"/></g></g></g><g id="g4613" transform="matrix(1.5128983,0,0,1.5128983,-12.811818,4.8216693)" style="stroke-width:.66098297"><g id="g4611" transform="translate(1.424727,-14.19344)" style="stroke-width:.66098297"><g style="opacity:.6;fill:#000;fill-opacity:1;stroke-width:.66098297" id="g4607" transform="matrix(0.29741252,0,0,0.29741252,7.116321,23.235478)"><path style="opacity:1;fill:#000;fill-opacity:1;stroke-width:.66098297" id="path4605" d="M 48,37.077 C 48,46.423 40.837,54 32,54 23.163,54 16,46.423 16,37.077 16,27.731 25.6,20.154 32,10 38.4,20.154 48,27.731 48,37.077 Z"/></g><path id="path4609" d="m 21.392122,33.072992 c 0,2.779617 -2.130366,5.033112 -4.7586,5.033112 -2.628234,0 -4.7586,-2.253495 -4.7586,-5.033112 0,-2.779618 2.85516,-5.033112 4.7586,-8.053039 1.90344,3.019927 4.7586,5.273421 4.7586,8.053039 z" style="fill:#fff;stroke-width:.19658461"/></g></g><g style="stroke-width:.66098297" id="g4623" transform="matrix(1.5128983,0,0,1.5128983,22.171231,4.8216693)"><g style="stroke-width:.66098297" id="g4621" transform="translate(1.424727,-14.19344)"><g id="g4617" transform="matrix(0.29741252,0,0,0.29741252,7.116321,23.235478)" style="opacity:.6;fill:#000;fill-opacity:1;stroke-width:.66098297"><path id="path4615" d="M 48,37.077 C 48,46.423 40.837,54 32,54 23.163,54 16,46.423 16,37.077 16,27.731 25.6,20.154 32,10 38.4,20.154 48,27.731 48,37.077 Z" style="opacity:1;fill:#000;fill-opacity:1;stroke-width:.66098297"/></g><path style="fill:#fff;stroke-width:.19658461" id="path4619" d="m 21.392122,33.072992 c 0,2.779617 -2.130366,5.033112 -4.7586,5.033112 -2.628234,0 -4.7586,-2.253495 -4.7586,-5.033112 0,-2.779618 2.85516,-5.033112 4.7586,-8.053039 1.90344,3.019927 4.7586,5.273421 4.7586,8.053039 z"/></g></g></svg>